<svg width="194" height="175" viewBox="0 0 194 175" fill="none" xmlns="http://www.w3.org/2000/svg">
<path d="M87.6104 21.2666C82.812 21.2666 79.0108 25.2875 79.2073 30.1148L79.1929 68.9474C72.9954 68.745 69.7984 62.9089 68.0004 57.6769C66.4019 52.8466 61.8058 49.4241 56.805 49.4241H55.8049C54.004 49.4241 52.605 51.0313 52.605 52.8437L58.603 57.0698C61.3982 68.138 69.3937 76.7925 79.19 78.8073V85.8489H75.1894C72.7902 85.8489 70.391 86.8519 68.7896 88.6643C66.9887 90.6762 66.188 93.0899 66.188 95.7059L101.78 95.7203C101.983 90.4883 97.9848 86.0628 92.5851 85.8575H88.5845V78.8131C98.5832 76.6046 106.584 68.1554 109.189 57.0901L115.19 52.8669C115.19 51.0573 113.791 49.4473 111.993 49.4444H110.993C105.792 49.4444 101.393 52.8611 99.7915 57.6884C97.9906 62.9176 94.5883 68.9532 88.5903 68.9503L88.6105 21.2666H87.6104Z" fill="white"/>
<path d="M66.4135 6.94919C60.8953 12.2448 57.4988 18.9684 56.6489 26.5071H56.013C40.528 26.5013 28.0087 40.3532 28 57.4686C27.9942 74.5868 40.5019 88.6497 56.198 88.4531V78.6713H55.7789C45.1732 78.6684 36.4811 69.2912 36.484 57.2691C36.4898 45.247 45.1905 35.8756 55.7962 35.8814H56.6461C58.1318 35.8814 59.6147 36.289 61.1005 36.6995C62.7973 37.107 64.4941 36.2919 64.919 34.6645C64.919 34.2569 65.13 33.8493 64.919 33.647C64.708 32.8318 64.708 31.8143 64.708 30.9992C64.708 30.184 64.708 29.1665 64.9219 28.3513C66.1996 17.9596 74.2615 9.8109 84.0202 9.81379C93.779 9.81668 101.835 17.7688 103.104 28.1606C103.315 29.1781 103.315 29.9932 103.315 31.0136C103.315 31.8288 103.315 32.8463 103.315 33.6614C103.101 35.2917 104.373 36.922 106.07 37.1273C106.495 37.1273 106.92 37.1273 107.342 37.1273C108.828 36.7197 110.31 36.5173 111.796 36.5173H112.007C122.613 36.5202 131.305 45.8974 131.302 57.9195C131.296 69.9416 122.809 79.1078 112.204 79.3072V89.0891C127.683 89.0948 139.991 75.243 140 58.1247C140.006 41.0065 127.498 27.146 112.013 27.1402H111.802C110.955 19.8038 107.564 12.875 102.052 7.57356C92.299 -2.41353 76.389 -2.42221 66.4163 6.94919" fill="white"/>
<path d="M10.4452 131.658C11.3176 131.814 12.0576 132.273 12.6652 133.037C13.2727 133.8 13.5765 134.664 13.5765 135.63C13.5765 136.456 13.3584 137.204 12.9222 137.874C12.5016 138.528 11.8862 139.05 11.0762 139.439C10.2661 139.813 9.32361 140 8.24871 140H1.75256V123.76H7.94493C9.05099 123.76 10.0013 123.947 10.7958 124.32C11.5903 124.694 12.19 125.201 12.5951 125.839C13.0001 126.462 13.2026 127.163 13.2026 127.942C13.2026 128.877 12.9534 129.656 12.4548 130.279C11.9563 130.902 11.2865 131.362 10.4452 131.658ZM4.41645 130.583H7.71126C8.58364 130.583 9.2613 130.388 9.74422 129.999C10.2427 129.594 10.492 129.017 10.492 128.27C10.492 127.537 10.2427 126.969 9.74422 126.564C9.2613 126.143 8.58364 125.933 7.71126 125.933H4.41645V130.583ZM8.01503 137.827C8.91857 137.827 9.62739 137.609 10.1415 137.173C10.6556 136.736 10.9126 136.129 10.9126 135.35C10.9126 134.555 10.64 133.924 10.0947 133.457C9.54949 132.99 8.8251 132.756 7.92156 132.756H4.41645V137.827H8.01503ZM28.2719 133.247C28.2719 133.73 28.2407 134.166 28.1784 134.555H18.3407C18.4186 135.584 18.8003 136.409 19.4857 137.032C20.1712 137.655 21.0124 137.967 22.0094 137.967C23.4426 137.967 24.4552 137.367 25.0472 136.168H27.9214C27.5319 137.352 26.8231 138.325 25.7949 139.089C24.7823 139.836 23.5205 140.21 22.0094 140.21C20.7787 140.21 19.6726 139.938 18.6912 139.392C17.7254 138.832 16.962 138.053 16.4012 137.056C15.856 136.043 15.5833 134.875 15.5833 133.551C15.5833 132.226 15.8482 131.066 16.3778 130.069C16.9231 129.056 17.6786 128.277 18.6445 127.732C19.6259 127.187 20.7475 126.914 22.0094 126.914C23.2245 126.914 24.3072 127.179 25.2575 127.709C26.2077 128.238 26.9477 128.986 27.4774 129.952C28.007 130.902 28.2719 132.001 28.2719 133.247ZM25.4911 132.406C25.4756 131.424 25.1251 130.637 24.4396 130.045C23.7542 129.453 22.9051 129.158 21.8926 129.158C20.9734 129.158 20.1867 129.453 19.5324 130.045C18.8782 130.622 18.4887 131.409 18.3641 132.406H25.4911ZM37.3895 126.914C38.4021 126.914 39.3057 127.125 40.1002 127.545C40.9102 127.966 41.5412 128.589 41.9929 129.415C42.4447 130.24 42.6706 131.237 42.6706 132.406V140H40.0301V132.803C40.0301 131.65 39.7419 130.77 39.1655 130.162C38.5891 129.539 37.8024 129.228 36.8054 129.228C35.8084 129.228 35.0139 129.539 34.4219 130.162C33.8455 130.77 33.5573 131.65 33.5573 132.803V140H30.8934V127.125H33.5573V128.597C33.9935 128.067 34.5465 127.654 35.2164 127.358C35.9018 127.062 36.6262 126.914 37.3895 126.914ZM47.4239 125.419C46.9409 125.419 46.5359 125.255 46.2087 124.928C45.8816 124.601 45.718 124.196 45.718 123.713C45.718 123.23 45.8816 122.825 46.2087 122.498C46.5359 122.171 46.9409 122.007 47.4239 122.007C47.8912 122.007 48.2885 122.171 48.6156 122.498C48.9427 122.825 49.1063 123.23 49.1063 123.713C49.1063 124.196 48.9427 124.601 48.6156 124.928C48.2885 125.255 47.8912 125.419 47.4239 125.419ZM48.7324 142.524C48.7324 143.786 48.4131 144.697 47.7744 145.258C47.1512 145.834 46.2399 146.122 45.0404 146.122H43.6617V143.879H44.573C45.1183 143.879 45.4999 143.77 45.718 143.552C45.9517 143.349 46.0685 143.007 46.0685 142.524V127.125H48.7324V142.524ZM51.3419 133.504C51.3419 132.211 51.6068 131.066 52.1364 130.069C52.6817 129.072 53.4138 128.301 54.333 127.755C55.2677 127.195 56.2958 126.914 57.4175 126.914C58.43 126.914 59.3102 127.117 60.058 127.522C60.8213 127.911 61.4289 128.402 61.8806 128.994V127.125H64.5679V140H61.8806V138.084C61.4289 138.691 60.8135 139.198 60.0346 139.603C59.2557 140.008 58.3677 140.21 57.3707 140.21C56.2647 140.21 55.2521 139.93 54.333 139.369C53.4138 138.793 52.6817 137.998 52.1364 136.986C51.6068 135.957 51.3419 134.797 51.3419 133.504ZM61.8806 133.551C61.8806 132.663 61.6937 131.891 61.3198 131.237C60.9615 130.583 60.4864 130.084 59.8944 129.742C59.3024 129.399 58.6637 129.228 57.9783 129.228C57.2928 129.228 56.6541 129.399 56.0621 129.742C55.4702 130.069 54.9872 130.56 54.6134 131.214C54.2551 131.853 54.0759 132.616 54.0759 133.504C54.0759 134.392 54.2551 135.171 54.6134 135.841C54.9872 136.51 55.4702 137.025 56.0621 137.383C56.6697 137.726 57.3084 137.897 57.9783 137.897C58.6637 137.897 59.3024 137.726 59.8944 137.383C60.4864 137.04 60.9615 136.542 61.3198 135.887C61.6937 135.217 61.8806 134.439 61.8806 133.551ZM83.6529 126.914C84.6655 126.914 85.569 127.125 86.3635 127.545C87.1736 127.966 87.8045 128.589 88.2563 129.415C88.7236 130.24 88.9573 131.237 88.9573 132.406V140H86.3168V132.803C86.3168 131.65 86.0286 130.77 85.4522 130.162C84.8758 129.539 84.0891 129.228 83.0921 129.228C82.0951 129.228 81.3006 129.539 80.7086 130.162C80.1322 130.77 79.844 131.65 79.844 132.803V140H77.2035V132.803C77.2035 131.65 76.9153 130.77 76.3389 130.162C75.7625 129.539 74.9758 129.228 73.9788 129.228C72.9817 129.228 72.1873 129.539 71.5953 130.162C71.0189 130.77 70.7307 131.65 70.7307 132.803V140H68.0668V127.125H70.7307V128.597C71.1669 128.067 71.7199 127.654 72.3898 127.358C73.0596 127.062 73.7762 126.914 74.5396 126.914C75.5677 126.914 76.4869 127.132 77.2969 127.569C78.107 128.005 78.7301 128.636 79.1663 129.461C79.5558 128.682 80.1633 128.067 80.989 127.615C81.8146 127.148 82.7026 126.914 83.6529 126.914ZM93.7023 125.419C93.2194 125.419 92.8144 125.255 92.4872 124.928C92.1601 124.601 91.9965 124.196 91.9965 123.713C91.9965 123.23 92.1601 122.825 92.4872 122.498C92.8144 122.171 93.2194 122.007 93.7023 122.007C94.1697 122.007 94.5669 122.171 94.8941 122.498C95.2212 122.825 95.3848 123.23 95.3848 123.713C95.3848 124.196 95.2212 124.601 94.8941 124.928C94.5669 125.255 94.1697 125.419 93.7023 125.419ZM95.0109 127.125V140H92.347V127.125H95.0109ZM105.005 126.914C106.017 126.914 106.921 127.125 107.715 127.545C108.525 127.966 109.156 128.589 109.608 129.415C110.06 130.24 110.286 131.237 110.286 132.406V140H107.645V132.803C107.645 131.65 107.357 130.77 106.78 130.162C106.204 129.539 105.417 129.228 104.42 129.228C103.423 129.228 102.629 129.539 102.037 130.162C101.46 130.77 101.172 131.65 101.172 132.803V140H98.5084V127.125H101.172V128.597C101.608 128.067 102.161 127.654 102.831 127.358C103.517 127.062 104.241 126.914 105.005 126.914ZM125.105 140.164C124.014 140.164 123.033 139.977 122.16 139.603C121.288 139.213 120.603 138.668 120.104 137.967C119.606 137.266 119.356 136.448 119.356 135.513H122.207C122.269 136.214 122.542 136.791 123.025 137.243C123.524 137.694 124.217 137.92 125.105 137.92C126.024 137.92 126.74 137.702 127.255 137.266C127.769 136.814 128.026 136.238 128.026 135.537C128.026 134.992 127.862 134.548 127.535 134.205C127.223 133.862 126.826 133.597 126.343 133.41C125.876 133.223 125.222 133.021 124.38 132.803C123.321 132.522 122.456 132.242 121.787 131.962C121.132 131.666 120.571 131.214 120.104 130.606C119.637 129.999 119.403 129.189 119.403 128.176C119.403 127.241 119.637 126.424 120.104 125.722C120.571 125.021 121.226 124.484 122.067 124.11C122.908 123.736 123.882 123.549 124.988 123.549C126.561 123.549 127.846 123.947 128.844 124.741C129.856 125.52 130.417 126.595 130.526 127.966H127.582C127.535 127.374 127.255 126.867 126.74 126.447C126.226 126.026 125.549 125.816 124.707 125.816C123.944 125.816 123.321 126.011 122.838 126.4C122.355 126.79 122.114 127.35 122.114 128.083C122.114 128.581 122.262 128.994 122.558 129.321C122.869 129.633 123.259 129.882 123.726 130.069C124.193 130.256 124.832 130.458 125.642 130.676C126.717 130.972 127.589 131.268 128.259 131.564C128.945 131.86 129.521 132.32 129.989 132.943C130.471 133.551 130.713 134.368 130.713 135.397C130.713 136.222 130.487 137.001 130.035 137.733C129.599 138.466 128.953 139.058 128.096 139.509C127.255 139.945 126.258 140.164 125.105 140.164ZM132.968 133.551C132.968 132.226 133.233 131.066 133.763 130.069C134.308 129.056 135.056 128.277 136.006 127.732C136.956 127.187 138.047 126.914 139.277 126.914C140.835 126.914 142.12 127.288 143.133 128.036C144.161 128.768 144.854 129.82 145.213 131.19H142.339C142.105 130.552 141.731 130.053 141.217 129.695C140.703 129.337 140.056 129.158 139.277 129.158C138.187 129.158 137.315 129.547 136.66 130.326C136.022 131.089 135.702 132.164 135.702 133.551C135.702 134.937 136.022 136.02 136.66 136.799C137.315 137.578 138.187 137.967 139.277 137.967C140.82 137.967 141.84 137.289 142.339 135.934H145.213C144.839 137.243 144.138 138.286 143.11 139.065C142.082 139.829 140.804 140.21 139.277 140.21C138.047 140.21 136.956 139.938 136.006 139.392C135.056 138.832 134.308 138.053 133.763 137.056C133.233 136.043 132.968 134.875 132.968 133.551ZM154.527 126.914C155.509 126.914 156.381 127.125 157.144 127.545C157.923 127.966 158.531 128.589 158.967 129.415C159.419 130.24 159.645 131.237 159.645 132.406V140H157.004V132.803C157.004 131.65 156.716 130.77 156.14 130.162C155.563 129.539 154.776 129.228 153.779 129.228C152.782 129.228 151.988 129.539 151.396 130.162C150.82 130.77 150.531 131.65 150.531 132.803V140H147.868V122.708H150.531V128.62C150.983 128.075 151.552 127.654 152.237 127.358C152.938 127.062 153.702 126.914 154.527 126.914ZM174.703 127.125V140H172.039V138.481C171.619 139.011 171.065 139.431 170.38 139.743C169.71 140.039 168.994 140.187 168.23 140.187C167.218 140.187 166.306 139.977 165.496 139.556C164.702 139.135 164.071 138.512 163.603 137.687C163.152 136.861 162.926 135.864 162.926 134.696V127.125H165.566V134.298C165.566 135.451 165.855 136.339 166.431 136.962C167.007 137.57 167.794 137.874 168.791 137.874C169.788 137.874 170.575 137.57 171.151 136.962C171.743 136.339 172.039 135.451 172.039 134.298V127.125H174.703ZM180.882 122.708V140H178.218V122.708H180.882ZM186.739 137.827H192.581V140H183.655V137.827L189.52 129.298H183.655V127.125H192.581V129.298L186.739 137.827ZM0.864595 159.845C0.864595 158.256 1.23069 156.83 1.96287 155.569C2.71062 154.307 3.71542 153.325 4.97727 152.624C6.25469 151.908 7.64894 151.549 9.16004 151.549C10.8892 151.549 12.4237 151.978 13.7634 152.835C15.1187 153.676 16.1002 154.875 16.7077 156.433H13.5064C13.0858 155.576 12.5016 154.938 11.7538 154.517C11.0061 154.096 10.1415 153.886 9.16004 153.886C8.08514 153.886 7.12707 154.128 6.28584 154.61C5.44461 155.093 4.78254 155.787 4.29961 156.69C3.83226 157.594 3.59859 158.645 3.59859 159.845C3.59859 161.044 3.83226 162.096 4.29961 162.999C4.78254 163.903 5.44461 164.604 6.28584 165.102C7.12707 165.585 8.08514 165.827 9.16004 165.827C10.1415 165.827 11.0061 165.617 11.7538 165.196C12.5016 164.775 13.0858 164.137 13.5064 163.28H16.7077C16.1002 164.838 15.1187 166.037 13.7634 166.878C12.4237 167.72 10.8892 168.14 9.16004 168.14C7.63336 168.14 6.23911 167.79 4.97727 167.089C3.71542 166.372 2.71062 165.383 1.96287 164.121C1.23069 162.859 0.864595 161.434 0.864595 159.845ZM25.4106 168.21C24.1955 168.21 23.0973 167.938 22.1158 167.392C21.1344 166.832 20.3633 166.053 19.8024 165.056C19.2416 164.043 18.9612 162.875 18.9612 161.551C18.9612 160.242 19.2494 159.081 19.8258 158.069C20.4022 157.056 21.1889 156.277 22.1859 155.732C23.1829 155.187 24.2968 154.914 25.5275 154.914C26.7582 154.914 27.872 155.187 28.869 155.732C29.866 156.277 30.6527 157.056 31.2291 158.069C31.8055 159.081 32.0937 160.242 32.0937 161.551C32.0937 162.859 31.7977 164.02 31.2058 165.032C30.6138 166.045 29.8037 166.832 28.7755 167.392C27.763 167.938 26.6413 168.21 25.4106 168.21ZM25.4106 165.897C26.0961 165.897 26.7348 165.733 27.3268 165.406C27.9343 165.079 28.425 164.588 28.7989 163.934C29.1728 163.28 29.3597 162.485 29.3597 161.551C29.3597 160.616 29.1806 159.829 28.8223 159.19C28.464 158.536 27.9888 158.045 27.3969 157.718C26.8049 157.391 26.1662 157.228 25.4807 157.228C24.7953 157.228 24.1566 157.391 23.5646 157.718C22.9882 158.045 22.5286 158.536 22.1859 159.19C21.8432 159.829 21.6718 160.616 21.6718 161.551C21.6718 162.937 22.0224 164.012 22.7234 164.775C23.44 165.523 24.3357 165.897 25.4106 165.897ZM46.3875 155.125V168H43.7236V166.481C43.303 167.011 42.7499 167.431 42.0645 167.743C41.3946 168.039 40.678 168.187 39.9147 168.187C38.9021 168.187 37.9908 167.977 37.1807 167.556C36.3862 167.135 35.7553 166.512 35.2879 165.687C34.8362 164.861 34.6103 163.864 34.6103 162.696V155.125H37.2508V162.298C37.2508 163.451 37.539 164.339 38.1154 164.962C38.6918 165.57 39.4785 165.874 40.4755 165.874C41.4725 165.874 42.2592 165.57 42.8356 164.962C43.4276 164.339 43.7236 163.451 43.7236 162.298V155.125H46.3875ZM56.3984 154.914C57.411 154.914 58.3145 155.125 59.109 155.545C59.9191 155.966 60.55 156.589 61.0018 157.415C61.4536 158.24 61.6795 159.237 61.6795 160.406V168H59.0389V160.803C59.0389 159.65 58.7507 158.77 58.1743 158.162C57.5979 157.539 56.8112 157.228 55.8142 157.228C54.8172 157.228 54.0227 157.539 53.4307 158.162C52.8544 158.77 52.5662 159.65 52.5662 160.803V168H49.9023V155.125H52.5662V156.597C53.0023 156.067 53.5554 155.654 54.2252 155.358C54.9107 155.062 55.6351 154.914 56.3984 154.914ZM69.7509 168.21C68.7383 168.21 67.827 168.031 67.0169 167.673C66.2224 167.299 65.5915 166.8 65.1241 166.177C64.6568 165.539 64.4075 164.83 64.3764 164.051H67.1337C67.1805 164.596 67.4375 165.056 67.9049 165.43C68.3878 165.788 68.9876 165.967 69.7042 165.967C70.4519 165.967 71.0283 165.827 71.4334 165.546C71.854 165.25 72.0643 164.877 72.0643 164.425C72.0643 163.942 71.8306 163.584 71.3633 163.35C70.9115 163.116 70.1871 162.859 69.1901 162.579C68.2242 162.314 67.4375 162.057 66.83 161.808C66.2224 161.558 65.6928 161.177 65.241 160.663C64.8048 160.149 64.5867 159.471 64.5867 158.63C64.5867 157.944 64.7892 157.321 65.1942 156.76C65.5993 156.184 66.1757 155.732 66.9234 155.405C67.6868 155.078 68.5592 154.914 69.5406 154.914C71.005 154.914 72.1811 155.288 73.0691 156.036C73.9726 156.768 74.4555 157.773 74.5179 159.05H71.854C71.8072 158.474 71.5736 158.014 71.1529 157.672C70.7323 157.329 70.1637 157.158 69.4471 157.158C68.7461 157.158 68.2086 157.29 67.8348 157.555C67.4609 157.82 67.2739 158.17 67.2739 158.606C67.2739 158.949 67.3986 159.237 67.6478 159.471C67.8971 159.705 68.2009 159.891 68.5592 160.032C68.9175 160.156 69.4471 160.32 70.1481 160.522C71.0828 160.772 71.8462 161.029 72.4382 161.294C73.0457 161.543 73.5676 161.917 74.0038 162.415C74.44 162.914 74.6659 163.576 74.6814 164.401C74.6814 165.134 74.4789 165.788 74.0739 166.364C73.6688 166.941 73.0924 167.392 72.3447 167.72C71.6125 168.047 70.7479 168.21 69.7509 168.21ZM89.3604 161.247C89.3604 161.73 89.3292 162.166 89.2669 162.555H79.4292C79.5071 163.584 79.8888 164.409 80.5742 165.032C81.2597 165.655 82.1009 165.967 83.0979 165.967C84.5311 165.967 85.5437 165.367 86.1357 164.168H89.0099C88.6204 165.352 87.9116 166.325 86.8834 167.089C85.8708 167.836 84.609 168.21 83.0979 168.21C81.8672 168.21 80.7612 167.938 79.7797 167.392C78.8139 166.832 78.0505 166.053 77.4897 165.056C76.9445 164.043 76.6719 162.875 76.6719 161.551C76.6719 160.226 76.9367 159.066 77.4664 158.069C78.0116 157.056 78.7671 156.277 79.733 155.732C80.7144 155.187 81.8361 154.914 83.0979 154.914C84.313 154.914 85.3957 155.179 86.346 155.709C87.2963 156.238 88.0362 156.986 88.5659 157.952C89.0956 158.902 89.3604 160.001 89.3604 161.247ZM86.5797 160.406C86.5641 159.424 86.2136 158.637 85.5281 158.045C84.8427 157.453 83.9937 157.158 82.9811 157.158C82.062 157.158 81.2752 157.453 80.621 158.045C79.9667 158.622 79.5772 159.409 79.4526 160.406H86.5797ZM94.6458 150.708V168H91.9819V150.708H94.6458ZM100.807 150.708V168H98.1433V150.708H100.807ZM105.66 153.419C105.177 153.419 104.772 153.255 104.445 152.928C104.118 152.601 103.954 152.196 103.954 151.713C103.954 151.23 104.118 150.825 104.445 150.498C104.772 150.171 105.177 150.007 105.66 150.007C106.127 150.007 106.524 150.171 106.852 150.498C107.179 150.825 107.342 151.23 107.342 151.713C107.342 152.196 107.179 152.601 106.852 152.928C106.524 153.255 106.127 153.419 105.66 153.419ZM106.968 155.125V168H104.305V155.125H106.968ZM116.962 154.914C117.975 154.914 118.878 155.125 119.673 155.545C120.483 155.966 121.114 156.589 121.565 157.415C122.017 158.24 122.243 159.237 122.243 160.406V168H119.603V160.803C119.603 159.65 119.314 158.77 118.738 158.162C118.162 157.539 117.375 157.228 116.378 157.228C115.381 157.228 114.586 157.539 113.994 158.162C113.418 158.77 113.13 159.65 113.13 160.803V168H110.466V155.125H113.13V156.597C113.566 156.067 114.119 155.654 114.789 155.358C115.474 155.062 116.199 154.914 116.962 154.914ZM130.829 154.914C131.826 154.914 132.706 155.117 133.469 155.522C134.248 155.911 134.856 156.402 135.292 156.994V155.125H137.979V168.21C137.979 169.394 137.73 170.446 137.231 171.365C136.733 172.3 136.008 173.032 135.058 173.561C134.123 174.091 133.002 174.356 131.693 174.356C129.948 174.356 128.5 173.943 127.347 173.117C126.194 172.307 125.54 171.201 125.384 169.799H128.025C128.227 170.469 128.655 171.007 129.31 171.412C129.98 171.832 130.774 172.043 131.693 172.043C132.768 172.043 133.633 171.715 134.287 171.061C134.957 170.407 135.292 169.457 135.292 168.21V166.061C134.84 166.668 134.225 167.182 133.446 167.603C132.682 168.008 131.81 168.21 130.829 168.21C129.707 168.21 128.679 167.93 127.744 167.369C126.825 166.793 126.093 165.998 125.548 164.986C125.018 163.957 124.753 162.797 124.753 161.504C124.753 160.211 125.018 159.066 125.548 158.069C126.093 157.072 126.825 156.301 127.744 155.755C128.679 155.195 129.707 154.914 130.829 154.914ZM135.292 161.551C135.292 160.663 135.105 159.891 134.731 159.237C134.373 158.583 133.898 158.084 133.306 157.742C132.714 157.399 132.075 157.228 131.389 157.228C130.704 157.228 130.065 157.399 129.473 157.742C128.881 158.069 128.398 158.56 128.025 159.214C127.666 159.853 127.487 160.616 127.487 161.504C127.487 162.392 127.666 163.171 128.025 163.841C128.398 164.51 128.881 165.025 129.473 165.383C130.081 165.726 130.72 165.897 131.389 165.897C132.075 165.897 132.714 165.726 133.306 165.383C133.898 165.04 134.373 164.542 134.731 163.887C135.105 163.217 135.292 162.439 135.292 161.551Z" fill="white"/>
</svg>
