<svg width="318" height="63" viewBox="0 0 318 63" fill="none" xmlns="http://www.w3.org/2000/svg">
<g clip-path="url(#clip0_1837_8)">
<path d="M47.1781 1.82558H44.8312C28.6752 1.82558 15.5783 14.9225 15.5783 31.0784C15.5783 47.2344 28.6752 60.3313 44.8312 60.3313H47.1781C63.3341 60.3313 76.431 47.2344 76.431 31.0784C76.431 14.9225 63.3341 1.82558 47.1781 1.82558Z" fill="#385947"/>
<path d="M47.5332 20.1215C45.5555 20.1215 43.9889 21.7787 44.0699 23.7683L44.0639 39.7731C41.5096 39.6897 40.192 37.2843 39.4509 35.128C38.7921 33.1372 36.8978 31.7266 34.8368 31.7266H34.4246C33.6823 31.7266 33.1057 32.389 33.1057 33.136L35.5778 34.8778C36.7299 39.4395 40.0252 43.0065 44.0627 43.8369V46.739H42.4139C41.425 46.739 40.4362 47.1524 39.7762 47.8994C39.034 48.7286 38.704 49.7234 38.704 50.8016L53.3733 50.8076C53.4567 48.6512 51.809 46.8272 49.5835 46.7426H47.9347V43.8392C52.0556 42.929 55.3533 39.4467 56.4268 34.8861L58.9 33.1455C58.9 32.3997 58.3234 31.7361 57.5824 31.7349H57.1702C55.0269 31.7349 53.2136 33.1431 52.5536 35.1327C51.8114 37.2879 50.4091 39.7755 47.9371 39.7743L47.9454 20.1215H47.5332Z" fill="white"/>
<path d="M38.7969 14.2206C36.5226 16.4032 35.1227 19.1743 34.7724 22.2814H34.5103C28.1282 22.279 22.9684 27.9881 22.9648 35.0422C22.9624 42.0975 28.1175 47.8935 34.5866 47.8125V43.7809H34.4138C30.0427 43.7797 26.4603 39.9149 26.4614 34.96C26.4638 30.0051 30.0499 26.1427 34.421 26.145H34.7712C35.3836 26.145 35.9948 26.313 36.6071 26.4822C37.3065 26.6502 38.0058 26.3142 38.1809 25.6435C38.1809 25.4755 38.2679 25.3075 38.1809 25.2241C38.094 24.8881 38.094 24.4688 38.094 24.1328C38.094 23.7969 38.094 23.3775 38.1821 23.0415C38.7087 18.7586 42.0314 15.4001 46.0535 15.4013C50.0756 15.4025 53.3959 18.6799 53.9189 22.9629C54.0059 23.3823 54.0059 23.7182 54.0059 24.1388C54.0059 24.4747 54.0059 24.8941 54.0059 25.2301C53.9177 25.902 54.4419 26.5739 55.1413 26.6585C55.3164 26.6585 55.4915 26.6585 55.6655 26.6585C56.2778 26.4905 56.889 26.4071 57.5014 26.4071H57.5883C61.9595 26.4083 65.5419 30.2731 65.5407 35.228C65.5383 40.1829 62.0405 43.9608 57.6693 44.043V48.0746C64.0491 48.0769 69.122 42.3679 69.1255 35.3126C69.1279 28.2573 63.9729 22.5447 57.5907 22.5423H57.5037C57.1547 19.5186 55.7572 16.6629 53.4853 14.478C49.4656 10.3618 42.9083 10.3582 38.7981 14.2206" fill="white"/>
</g>
<path d="M95.8109 19.6662C96.7612 19.8687 97.5246 20.3438 98.101 21.0916C98.6774 21.8238 98.9655 22.665 98.9655 23.6153C98.9655 24.9861 98.4826 26.0766 97.5168 26.8867C96.5665 27.6812 95.2345 28.0784 93.5209 28.0784H85.8798V11.6745H93.2639C94.9308 11.6745 96.2316 12.0562 97.1663 12.8195C98.1165 13.5828 98.5917 14.6188 98.5917 15.9274C98.5917 16.8932 98.3346 17.6955 97.8205 18.3342C97.322 18.9729 96.6522 19.4169 95.8109 19.6662ZM89.8756 18.3108H92.4928C93.1471 18.3108 93.6456 18.1706 93.9883 17.8902C94.3466 17.5942 94.5257 17.1658 94.5257 16.605C94.5257 16.0442 94.3466 15.6158 93.9883 15.3198C93.6456 15.0238 93.1471 14.8758 92.4928 14.8758H89.8756V18.3108ZM92.8199 24.8537C93.4898 24.8537 94.0039 24.7057 94.3622 24.4097C94.736 24.0982 94.923 23.6542 94.923 23.0778C94.923 22.5014 94.7283 22.0496 94.3388 21.7225C93.9649 21.3953 93.443 21.2318 92.7732 21.2318H89.8756V24.8537H92.8199ZM113.574 21.3486C113.574 21.7225 113.551 22.112 113.504 22.517H104.461C104.523 23.3271 104.78 23.9502 105.232 24.3864C105.7 24.807 106.268 25.0173 106.938 25.0173C107.935 25.0173 108.628 24.5967 109.018 23.7555H113.271C113.053 24.6123 112.655 25.3834 112.079 26.0688C111.518 26.7543 110.809 27.2917 109.952 27.6812C109.096 28.0706 108.138 28.2654 107.078 28.2654C105.801 28.2654 104.664 27.9928 103.667 27.4475C102.67 26.9023 101.891 26.1234 101.33 25.1108C100.769 24.0982 100.489 22.9142 100.489 21.5589C100.489 20.2036 100.761 19.0197 101.306 18.0071C101.867 16.9945 102.646 16.2156 103.643 15.6703C104.64 15.1251 105.785 14.8525 107.078 14.8525C108.34 14.8525 109.462 15.1173 110.443 15.647C111.425 16.1766 112.188 16.9322 112.733 17.9136C113.294 18.895 113.574 20.04 113.574 21.3486ZM109.485 20.2971C109.485 19.6116 109.251 19.0664 108.784 18.6614C108.317 18.2563 107.733 18.0538 107.032 18.0538C106.362 18.0538 105.793 18.2485 105.326 18.638C104.874 19.0274 104.594 19.5805 104.484 20.2971H109.485ZM123.627 14.8992C125.154 14.8992 126.369 15.3977 127.273 16.3947C128.192 17.3761 128.651 18.7315 128.651 20.4607V28.0784H124.679V20.9981C124.679 20.1257 124.453 19.4481 124.001 18.9651C123.549 18.4822 122.942 18.2407 122.179 18.2407C121.415 18.2407 120.808 18.4822 120.356 18.9651C119.904 19.4481 119.678 20.1257 119.678 20.9981V28.0784H115.682V15.0394H119.678V16.7686C120.083 16.1922 120.629 15.7404 121.314 15.4133C121.999 15.0706 122.771 14.8992 123.627 14.8992ZM133.414 13.6841C132.713 13.6841 132.137 13.4816 131.685 13.0765C131.249 12.6559 131.031 12.1418 131.031 11.5343C131.031 10.9112 131.249 10.3971 131.685 9.99204C132.137 9.57142 132.713 9.36112 133.414 9.36112C134.1 9.36112 134.661 9.57142 135.097 9.99204C135.548 10.3971 135.774 10.9112 135.774 11.5343C135.774 12.1418 135.548 12.6559 135.097 13.0765C134.661 13.4816 134.1 13.6841 133.414 13.6841ZM135.424 29.7609C135.424 31.3655 135.019 32.5183 134.209 33.2193C133.399 33.9359 132.269 34.2942 130.82 34.2942H129.255V30.9059H130.213C130.649 30.9059 130.961 30.8202 131.148 30.6489C131.335 30.4775 131.428 30.1971 131.428 29.8076V15.0394H135.424V29.7609ZM137.502 21.5356C137.502 20.1958 137.752 19.0197 138.25 18.0071C138.764 16.9945 139.457 16.2156 140.33 15.6703C141.202 15.1251 142.176 14.8525 143.251 14.8525C144.17 14.8525 144.972 15.0394 145.658 15.4133C146.359 15.7872 146.896 16.2779 147.27 16.8854V15.0394H151.266V28.0784H147.27V26.2324C146.88 26.84 146.335 27.3307 145.634 27.7046C144.949 28.0784 144.146 28.2654 143.227 28.2654C142.168 28.2654 141.202 27.9928 140.33 27.4475C139.457 26.8867 138.764 26.1 138.25 25.0874C137.752 24.0592 137.502 22.8753 137.502 21.5356ZM147.27 21.5589C147.27 20.5619 146.989 19.7752 146.429 19.1988C145.883 18.6224 145.214 18.3342 144.419 18.3342C143.625 18.3342 142.947 18.6224 142.386 19.1988C141.841 19.7596 141.568 20.5385 141.568 21.5356C141.568 22.5326 141.841 23.3271 142.386 23.919C142.947 24.4954 143.625 24.7836 144.419 24.7836C145.214 24.7836 145.883 24.4954 146.429 23.919C146.989 23.3426 147.27 22.5559 147.27 21.5589ZM170.794 14.8992C172.414 14.8992 173.699 15.3899 174.65 16.3713C175.616 17.3528 176.099 18.7159 176.099 20.4607V28.0784H172.126V20.9981C172.126 20.1569 171.9 19.5104 171.448 19.0586C171.012 18.5913 170.405 18.3576 169.626 18.3576C168.847 18.3576 168.232 18.5913 167.78 19.0586C167.344 19.5104 167.125 20.1569 167.125 20.9981V28.0784H163.153V20.9981C163.153 20.1569 162.927 19.5104 162.475 19.0586C162.039 18.5913 161.432 18.3576 160.653 18.3576C159.874 18.3576 159.258 18.5913 158.807 19.0586C158.37 19.5104 158.152 20.1569 158.152 20.9981V28.0784H154.157V15.0394H158.152V16.6751C158.557 16.1299 159.087 15.7015 159.741 15.3899C160.396 15.0628 161.136 14.8992 161.961 14.8992C162.943 14.8992 163.815 15.1095 164.578 15.5301C165.357 15.9507 165.965 16.5505 166.401 17.3294C166.853 16.6128 167.468 16.0286 168.247 15.5769C169.026 15.1251 169.875 14.8992 170.794 14.8992ZM180.903 13.6841C180.202 13.6841 179.625 13.4816 179.174 13.0765C178.737 12.6559 178.519 12.1418 178.519 11.5343C178.519 10.9112 178.737 10.3971 179.174 9.99204C179.625 9.57142 180.202 9.36112 180.903 9.36112C181.588 9.36112 182.149 9.57142 182.585 9.99204C183.037 10.3971 183.263 10.9112 183.263 11.5343C183.263 12.1418 183.037 12.6559 182.585 13.0765C182.149 13.4816 181.588 13.6841 180.903 13.6841ZM182.889 15.0394V28.0784H178.893V15.0394H182.889ZM193.73 14.8992C195.256 14.8992 196.471 15.3977 197.375 16.3947C198.294 17.3761 198.754 18.7315 198.754 20.4607V28.0784H194.781V20.9981C194.781 20.1257 194.555 19.4481 194.104 18.9651C193.652 18.4822 193.044 18.2407 192.281 18.2407C191.518 18.2407 190.91 18.4822 190.458 18.9651C190.006 19.4481 189.781 20.1257 189.781 20.9981V28.0784H185.785V15.0394H189.781V16.7686C190.186 16.1922 190.731 15.7404 191.416 15.4133C192.102 15.0706 192.873 14.8992 193.73 14.8992ZM212.418 28.242C211.218 28.242 210.143 28.0473 209.193 27.6578C208.243 27.2684 207.479 26.692 206.903 25.9286C206.342 25.1653 206.046 24.2462 206.015 23.1713H210.268C210.33 23.7788 210.54 24.2462 210.899 24.5733C211.257 24.8849 211.724 25.0407 212.301 25.0407C212.893 25.0407 213.36 24.9083 213.703 24.6434C214.046 24.363 214.217 23.9813 214.217 23.4984C214.217 23.0934 214.077 22.7585 213.796 22.4936C213.531 22.2288 213.196 22.0107 212.791 21.8393C212.402 21.668 211.841 21.4732 211.109 21.2551C210.05 20.928 209.185 20.6009 208.515 20.2737C207.845 19.9466 207.269 19.4636 206.786 18.8249C206.303 18.1862 206.062 17.3528 206.062 16.3246C206.062 14.7979 206.615 13.6062 207.721 12.7494C208.827 11.877 210.268 11.4408 212.044 11.4408C213.851 11.4408 215.307 11.877 216.413 12.7494C217.519 13.6062 218.111 14.8057 218.189 16.348H213.866C213.835 15.8183 213.64 15.4055 213.282 15.1095C212.924 14.7979 212.464 14.6422 211.903 14.6422C211.421 14.6422 211.031 14.7746 210.735 15.0394C210.439 15.2887 210.291 15.6547 210.291 16.1377C210.291 16.6673 210.54 17.0802 211.039 17.3761C211.537 17.6721 212.316 17.9915 213.376 18.3342C214.435 18.6925 215.292 19.0352 215.946 19.3624C216.616 19.6895 217.192 20.1647 217.675 20.7878C218.158 21.4109 218.4 22.2132 218.4 23.1946C218.4 24.1293 218.158 24.9784 217.675 25.7417C217.208 26.505 216.522 27.1126 215.619 27.5644C214.715 28.0161 213.648 28.242 212.418 28.242ZM220.064 21.5589C220.064 20.2036 220.337 19.0197 220.882 18.0071C221.443 16.9945 222.214 16.2156 223.195 15.6703C224.192 15.1251 225.33 14.8525 226.607 14.8525C228.243 14.8525 229.606 15.2809 230.696 16.1377C231.802 16.9945 232.527 18.2018 232.87 19.7596H228.617C228.258 18.7626 227.565 18.2641 226.537 18.2641C225.805 18.2641 225.221 18.5523 224.784 19.1287C224.348 19.6895 224.13 20.4996 224.13 21.5589C224.13 22.6182 224.348 23.4361 224.784 24.0125C225.221 24.5733 225.805 24.8537 226.537 24.8537C227.565 24.8537 228.258 24.3552 228.617 23.3582H232.87C232.527 24.8849 231.802 26.0844 230.696 26.9568C229.59 27.8292 228.227 28.2654 226.607 28.2654C225.33 28.2654 224.192 27.9928 223.195 27.4475C222.214 26.9023 221.443 26.1234 220.882 25.1108C220.337 24.0982 220.064 22.9142 220.064 21.5589ZM243.022 14.8992C244.518 14.8992 245.717 15.3977 246.621 16.3947C247.524 17.3761 247.976 18.7315 247.976 20.4607V28.0784H244.003V20.9981C244.003 20.1257 243.778 19.4481 243.326 18.9651C242.874 18.4822 242.266 18.2407 241.503 18.2407C240.74 18.2407 240.132 18.4822 239.68 18.9651C239.229 19.4481 239.003 20.1257 239.003 20.9981V28.0784H235.007V10.7865H239.003V16.792C239.408 16.2156 239.961 15.756 240.662 15.4133C241.363 15.0706 242.15 14.8992 243.022 14.8992ZM263.628 15.0394V28.0784H259.632V26.3025C259.227 26.8789 258.674 27.3463 257.973 27.7046C257.288 28.0473 256.524 28.2186 255.683 28.2186C254.686 28.2186 253.806 28.0005 253.043 27.5644C252.279 27.1126 251.687 26.4661 251.267 25.6249C250.846 24.7836 250.636 23.7944 250.636 22.6572V15.0394H254.608V22.1197C254.608 22.9921 254.834 23.6698 255.286 24.1527C255.738 24.6356 256.345 24.8771 257.109 24.8771C257.887 24.8771 258.503 24.6356 258.955 24.1527C259.406 23.6698 259.632 22.9921 259.632 22.1197V15.0394H263.628ZM270.494 10.7865V28.0784H266.498V10.7865H270.494ZM277.129 24.7836H282.784V28.0784H272.665V24.9005L278.087 18.3342H272.712V15.0394H282.667V18.2174L277.129 24.7836ZM85.2021 41.8531C85.2021 40.233 85.5526 38.792 86.2537 37.5301C86.9547 36.2527 87.9283 35.2635 89.1746 34.5625C90.4364 33.8459 91.8618 33.4876 93.4508 33.4876C95.3981 33.4876 97.065 34.0016 98.4515 35.0298C99.8379 36.058 100.765 37.46 101.232 39.2359H96.8391C96.512 38.5505 96.0446 38.0286 95.4371 37.6703C94.8451 37.312 94.1674 37.1329 93.4041 37.1329C92.1734 37.1329 91.1764 37.5613 90.4131 38.4181C89.6497 39.2749 89.2681 40.4199 89.2681 41.8531C89.2681 43.2863 89.6497 44.4313 90.4131 45.2881C91.1764 46.1449 92.1734 46.5733 93.4041 46.5733C94.1674 46.5733 94.8451 46.3942 95.4371 46.0359C96.0446 45.6776 96.512 45.1557 96.8391 44.4703H101.232C100.765 46.2462 99.8379 47.6482 98.4515 48.6764C97.065 49.689 95.3981 50.1953 93.4508 50.1953C91.8618 50.1953 90.4364 49.8448 89.1746 49.1437C87.9283 48.4271 86.9547 47.4379 86.2537 46.1761C85.5526 44.9142 85.2021 43.4732 85.2021 41.8531ZM109.615 50.2654C108.337 50.2654 107.184 49.9928 106.156 49.4475C105.144 48.9023 104.341 48.1234 103.749 47.1108C103.173 46.0982 102.885 44.9142 102.885 43.5589C102.885 42.2192 103.181 41.043 103.773 40.0304C104.365 39.0023 105.175 38.2156 106.203 37.6703C107.231 37.1251 108.384 36.8525 109.661 36.8525C110.939 36.8525 112.091 37.1251 113.12 37.6703C114.148 38.2156 114.958 39.0023 115.55 40.0304C116.142 41.043 116.438 42.2192 116.438 43.5589C116.438 44.8987 116.134 46.0826 115.526 47.1108C114.935 48.1234 114.117 48.9023 113.073 49.4475C112.045 49.9928 110.892 50.2654 109.615 50.2654ZM109.615 46.807C110.378 46.807 111.024 46.5266 111.554 45.9658C112.099 45.4049 112.372 44.6027 112.372 43.5589C112.372 42.5152 112.107 41.7129 111.577 41.1521C111.063 40.5913 110.425 40.3108 109.661 40.3108C108.882 40.3108 108.236 40.5913 107.722 41.1521C107.208 41.6973 106.951 42.4996 106.951 43.5589C106.951 44.6027 107.2 45.4049 107.698 45.9658C108.212 46.5266 108.851 46.807 109.615 46.807ZM131.433 37.0394V50.0784H127.437V48.3025C127.032 48.8789 126.479 49.3463 125.778 49.7046C125.093 50.0473 124.329 50.2186 123.488 50.2186C122.491 50.2186 121.611 50.0005 120.848 49.5644C120.084 49.1126 119.492 48.4661 119.072 47.6249C118.651 46.7836 118.441 45.7944 118.441 44.6572V37.0394H122.413V44.1197C122.413 44.9921 122.639 45.6698 123.091 46.1527C123.543 46.6356 124.15 46.8771 124.914 46.8771C125.693 46.8771 126.308 46.6356 126.76 46.1527C127.211 45.6698 127.437 44.9921 127.437 44.1197V37.0394H131.433ZM142.248 36.8992C143.775 36.8992 144.99 37.3977 145.894 38.3947C146.813 39.3761 147.272 40.7315 147.272 42.4607V50.0784H143.3V42.9981C143.3 42.1257 143.074 41.4481 142.622 40.9651C142.17 40.4822 141.563 40.2407 140.799 40.2407C140.036 40.2407 139.429 40.4822 138.977 40.9651C138.525 41.4481 138.299 42.1257 138.299 42.9981V50.0784H134.303V37.0394H138.299V38.7686C138.704 38.1922 139.249 37.7404 139.935 37.4133C140.62 37.0706 141.391 36.8992 142.248 36.8992ZM155.353 50.2654C154.216 50.2654 153.204 50.0706 152.316 49.6812C151.428 49.2917 150.727 48.7621 150.213 48.0922C149.698 47.4068 149.41 46.6434 149.348 45.8022H153.297C153.344 46.254 153.554 46.6201 153.928 46.9005C154.302 47.1809 154.761 47.3211 155.307 47.3211C155.805 47.3211 156.187 47.2276 156.452 47.0407C156.732 46.8382 156.872 46.5811 156.872 46.2695C156.872 45.8957 156.678 45.623 156.288 45.4517C155.899 45.2647 155.268 45.0622 154.395 44.8441C153.461 44.626 152.682 44.4001 152.059 44.1665C151.435 43.9172 150.898 43.5356 150.446 43.0215C149.994 42.4918 149.769 41.783 149.769 40.895C149.769 40.1473 149.971 39.4696 150.376 38.8621C150.797 38.2389 151.404 37.7482 152.199 37.3899C153.009 37.0316 153.967 36.8525 155.073 36.8525C156.709 36.8525 157.994 37.2575 158.929 38.0676C159.879 38.8776 160.424 39.9525 160.564 41.2923H156.872C156.81 40.8405 156.607 40.4822 156.265 40.2174C155.938 39.9525 155.501 39.8201 154.956 39.8201C154.489 39.8201 154.13 39.9136 153.881 40.1005C153.632 40.2719 153.507 40.5134 153.507 40.8249C153.507 41.1988 153.702 41.4792 154.092 41.6662C154.497 41.8531 155.12 42.04 155.961 42.227C156.927 42.4762 157.713 42.7255 158.321 42.9747C158.929 43.2084 159.458 43.5979 159.91 44.1431C160.377 44.6728 160.619 45.3894 160.634 46.2929C160.634 47.0562 160.416 47.7417 159.98 48.3492C159.56 48.9412 158.944 49.4086 158.134 49.7513C157.34 50.094 156.413 50.2654 155.353 50.2654ZM175.37 43.3486C175.37 43.7225 175.347 44.112 175.3 44.517H166.257C166.319 45.3271 166.576 45.9502 167.028 46.3864C167.495 46.807 168.064 47.0173 168.734 47.0173C169.731 47.0173 170.424 46.5967 170.814 45.7555H175.067C174.848 46.6123 174.451 47.3834 173.875 48.0688C173.314 48.7543 172.605 49.2917 171.748 49.6812C170.892 50.0706 169.934 50.2654 168.874 50.2654C167.597 50.2654 166.46 49.9928 165.463 49.4475C164.466 48.9023 163.687 48.1234 163.126 47.1108C162.565 46.0982 162.285 44.9142 162.285 43.5589C162.285 42.2036 162.557 41.0197 163.102 40.0071C163.663 38.9945 164.442 38.2156 165.439 37.6703C166.436 37.1251 167.581 36.8525 168.874 36.8525C170.136 36.8525 171.258 37.1173 172.239 37.647C173.221 38.1766 173.984 38.9322 174.529 39.9136C175.09 40.895 175.37 42.04 175.37 43.3486ZM171.281 42.2971C171.281 41.6116 171.047 41.0664 170.58 40.6614C170.113 40.2563 169.528 40.0538 168.827 40.0538C168.158 40.0538 167.589 40.2485 167.122 40.638C166.67 41.0274 166.389 41.5805 166.28 42.2971H171.281ZM181.474 32.7865V50.0784H177.478V32.7865H181.474ZM188.366 32.7865V50.0784H184.37V32.7865H188.366ZM193.271 35.6841C192.57 35.6841 191.994 35.4816 191.542 35.0765C191.106 34.6559 190.888 34.1418 190.888 33.5343C190.888 32.9112 191.106 32.3971 191.542 31.992C191.994 31.5714 192.57 31.3611 193.271 31.3611C193.957 31.3611 194.517 31.5714 194.954 31.992C195.405 32.3971 195.631 32.9112 195.631 33.5343C195.631 34.1418 195.405 34.6559 194.954 35.0765C194.517 35.4816 193.957 35.6841 193.271 35.6841ZM195.257 37.0394V50.0784H191.261V37.0394H195.257ZM206.098 36.8992C207.625 36.8992 208.84 37.3977 209.743 38.3947C210.662 39.3761 211.122 40.7315 211.122 42.4607V50.0784H207.15V42.9981C207.15 42.1257 206.924 41.4481 206.472 40.9651C206.02 40.4822 205.413 40.2407 204.649 40.2407C203.886 40.2407 203.278 40.4822 202.827 40.9651C202.375 41.4481 202.149 42.1257 202.149 42.9981V50.0784H198.153V37.0394H202.149V38.7686C202.554 38.1922 203.099 37.7404 203.785 37.4133C204.47 37.0706 205.241 36.8992 206.098 36.8992ZM218.853 36.8525C219.772 36.8525 220.574 37.0394 221.259 37.4133C221.96 37.7872 222.498 38.2779 222.872 38.8854V37.0394H226.868V50.0551C226.868 51.2546 226.626 52.3373 226.143 53.3031C225.676 54.2846 224.951 55.0635 223.97 55.6399C223.004 56.2163 221.797 56.5045 220.348 56.5045C218.416 56.5045 216.851 56.0449 215.651 55.1258C214.452 54.2223 213.766 52.9916 213.595 51.4337H217.544C217.669 51.9323 217.965 52.3217 218.432 52.6021C218.899 52.8981 219.476 53.0461 220.161 53.0461C220.987 53.0461 221.641 52.8046 222.124 52.3217C222.623 51.8544 222.872 51.0988 222.872 50.0551V48.209C222.482 48.8166 221.945 49.3151 221.259 49.7046C220.574 50.0784 219.772 50.2654 218.853 50.2654C217.778 50.2654 216.804 49.9928 215.932 49.4475C215.059 48.8867 214.366 48.1 213.852 47.0874C213.353 46.0592 213.104 44.8753 213.104 43.5356C213.104 42.1958 213.353 41.0197 213.852 40.0071C214.366 38.9945 215.059 38.2156 215.932 37.6703C216.804 37.1251 217.778 36.8525 218.853 36.8525ZM222.872 43.5589C222.872 42.5619 222.591 41.7752 222.031 41.1988C221.485 40.6224 220.815 40.3342 220.021 40.3342C219.226 40.3342 218.549 40.6224 217.988 41.1988C217.443 41.7596 217.17 42.5385 217.17 43.5356C217.17 44.5326 217.443 45.3271 217.988 45.919C218.549 46.4954 219.226 46.7836 220.021 46.7836C220.815 46.7836 221.485 46.4954 222.031 45.919C222.591 45.3426 222.872 44.5559 222.872 43.5589Z" fill="#385947"/>
<defs>
<clipPath id="clip0_1837_8">
<rect width="60.8527" height="58.5057" fill="white" transform="translate(15.5783 1.82558)"/>

</clipPath>
</defs>
</svg>
