<svg width="152" height="24" viewBox="0 0 152 24" fill="none" xmlns="http://www.w3.org/2000/svg">
<path d="M12.954 1.69999C12.8903 1.49692 12.7635 1.31946 12.5919 1.19344C12.4204 1.06742 12.2132 0.99941 12.0004 0.999298C11.7875 0.999187 11.5802 1.06698 11.4086 1.19282C11.2369 1.31866 11.1099 1.49598 11.046 1.69899L8.86199 8.61899L2.00099 8.61399C1.78709 8.61349 1.57867 8.68159 1.40633 8.80829C1.23399 8.93499 1.10682 9.11361 1.04349 9.31792C0.980162 9.52223 0.984013 9.74146 1.05448 9.94342C1.12494 10.1454 1.25831 10.3194 1.43499 10.44L6.93299 14.202L4.86599 20.747C4.80362 20.9468 4.80552 21.1611 4.87142 21.3598C4.93731 21.5585 5.06389 21.7314 5.2333 21.8544C5.40272 21.9773 5.60643 22.0439 5.81574 22.045C6.02505 22.046 6.2294 21.9813 6.39999 21.86L12 17.854L17.594 21.861C17.7646 21.9832 17.9694 22.0487 18.1793 22.0481C18.3892 22.0475 18.5936 21.9808 18.7635 21.8576C18.9334 21.7344 19.0603 21.5608 19.126 21.3615C19.1918 21.1621 19.1932 20.9472 19.13 20.747L17.063 14.202L22.565 10.44C22.7417 10.3194 22.875 10.1454 22.9455 9.94342C23.016 9.74146 23.0198 9.52223 22.9565 9.31792C22.8932 9.11361 22.766 8.93499 22.5937 8.80829C22.4213 8.68159 22.2129 8.61349 21.999 8.61399L15.133 8.61899L12.954 1.69999Z" fill="#BD6A3A"/>
<path d="M44.954 1.69999C44.8903 1.49692 44.7635 1.31946 44.5919 1.19344C44.4204 1.06742 44.2132 0.99941 44.0004 0.999298C43.7875 0.999187 43.5802 1.06698 43.4086 1.19282C43.2369 1.31866 43.1099 1.49598 43.046 1.69899L40.862 8.61899L34.001 8.61399C33.7871 8.61349 33.5787 8.68159 33.4063 8.80829C33.234 8.93499 33.1068 9.11361 33.0435 9.31792C32.9802 9.52223 32.984 9.74146 33.0545 9.94342C33.1249 10.1454 33.2583 10.3194 33.435 10.44L38.933 14.202L36.866 20.747C36.8036 20.9468 36.8055 21.1611 36.8714 21.3598C36.9373 21.5585 37.0639 21.7314 37.2333 21.8544C37.4027 21.9773 37.6064 22.0439 37.8157 22.045C38.025 22.046 38.2294 21.9813 38.4 21.86L44 17.854L49.594 21.861C49.7646 21.9832 49.9694 22.0487 50.1793 22.0481C50.3892 22.0475 50.5936 21.9808 50.7635 21.8576C50.9334 21.7344 51.0603 21.5608 51.126 21.3615C51.1918 21.1621 51.1932 20.9472 51.13 20.747L49.063 14.202L54.565 10.44C54.7417 10.3194 54.875 10.1454 54.9455 9.94342C55.016 9.74146 55.0198 9.52223 54.9565 9.31792C54.8932 9.11361 54.766 8.93499 54.5937 8.80829C54.4213 8.68159 54.2129 8.61349 53.999 8.61399L47.133 8.61899L44.954 1.69999Z" fill="#BD6A3A"/>
<path d="M76.954 1.69999C76.8903 1.49692 76.7635 1.31946 76.5919 1.19344C76.4204 1.06742 76.2132 0.99941 76.0004 0.999298C75.7875 0.999187 75.5802 1.06698 75.4086 1.19282C75.2369 1.31866 75.1099 1.49598 75.046 1.69899L72.862 8.61899L66.001 8.61399C65.7871 8.61349 65.5787 8.68159 65.4063 8.80829C65.234 8.93499 65.1068 9.11361 65.0435 9.31792C64.9802 9.52223 64.984 9.74146 65.0545 9.94342C65.1249 10.1454 65.2583 10.3194 65.435 10.44L70.933 14.202L68.866 20.747C68.8036 20.9468 68.8055 21.1611 68.8714 21.3598C68.9373 21.5585 69.0639 21.7314 69.2333 21.8544C69.4027 21.9773 69.6064 22.0439 69.8157 22.045C70.025 22.046 70.2294 21.9813 70.4 21.86L76 17.854L81.594 21.861C81.7646 21.9832 81.9694 22.0487 82.1793 22.0481C82.3892 22.0475 82.5936 21.9808 82.7635 21.8576C82.9334 21.7344 83.0603 21.5608 83.126 21.3615C83.1918 21.1621 83.1932 20.9472 83.13 20.747L81.063 14.202L86.565 10.44C86.7417 10.3194 86.875 10.1454 86.9455 9.94342C87.016 9.74146 87.0198 9.52223 86.9565 9.31792C86.8932 9.11361 86.766 8.93499 86.5937 8.80829C86.4213 8.68159 86.2129 8.61349 85.999 8.61399L79.133 8.61899L76.954 1.69999Z" fill="#BD6A3A"/>
<path d="M108.954 1.69999C108.89 1.49692 108.763 1.31946 108.592 1.19344C108.42 1.06742 108.213 0.99941 108 0.999298C107.788 0.999187 107.58 1.06698 107.409 1.19282C107.237 1.31866 107.11 1.49598 107.046 1.69899L104.862 8.61899L98.001 8.61399C97.7871 8.61349 97.5787 8.68159 97.4063 8.80829C97.234 8.93499 97.1068 9.11361 97.0435 9.31792C96.9802 9.52223 96.984 9.74146 97.0545 9.94342C97.1249 10.1454 97.2583 10.3194 97.435 10.44L102.933 14.202L100.866 20.747C100.804 20.9468 100.806 21.1611 100.871 21.3598C100.937 21.5585 101.064 21.7314 101.233 21.8544C101.403 21.9773 101.606 22.0439 101.816 22.045C102.025 22.046 102.229 21.9813 102.4 21.86L108 17.854L113.594 21.861C113.765 21.9832 113.969 22.0487 114.179 22.0481C114.389 22.0475 114.594 21.9808 114.764 21.8576C114.933 21.7344 115.06 21.5608 115.126 21.3615C115.192 21.1621 115.193 20.9472 115.13 20.747L113.063 14.202L118.565 10.44C118.742 10.3194 118.875 10.1454 118.946 9.94342C119.016 9.74146 119.02 9.52223 118.956 9.31792C118.893 9.11361 118.766 8.93499 118.594 8.80829C118.421 8.68159 118.213 8.61349 117.999 8.61399L111.133 8.61899L108.954 1.69999Z" fill="#BD6A3A"/>
<path d="M140.954 1.69999C140.89 1.49692 140.763 1.31946 140.592 1.19344C140.42 1.06742 140.213 0.99941 140 0.999298C139.788 0.999187 139.58 1.06698 139.409 1.19282C139.237 1.31866 139.11 1.49598 139.046 1.69899L136.862 8.61899L130.001 8.61399C129.787 8.61349 129.579 8.68159 129.406 8.80829C129.234 8.93499 129.107 9.11361 129.043 9.31792C128.98 9.52223 128.984 9.74146 129.054 9.94342C129.125 10.1454 129.258 10.3194 129.435 10.44L134.933 14.202L132.866 20.747C132.804 20.9468 132.806 21.1611 132.871 21.3598C132.937 21.5585 133.064 21.7314 133.233 21.8544C133.403 21.9773 133.606 22.0439 133.816 22.045C134.025 22.046 134.229 21.9813 134.4 21.86L140 17.854L145.594 21.861C145.765 21.9832 145.969 22.0487 146.179 22.0481C146.389 22.0475 146.594 21.9808 146.764 21.8576C146.933 21.7344 147.06 21.5608 147.126 21.3615C147.192 21.1621 147.193 20.9472 147.13 20.747L145.063 14.202L150.565 10.44C150.742 10.3194 150.875 10.1454 150.946 9.94342C151.016 9.74146 151.02 9.52223 150.956 9.31792C150.893 9.11361 150.766 8.93499 150.594 8.80829C150.421 8.68159 150.213 8.61349 149.999 8.61399L143.133 8.61899L140.954 1.69999Z" fill="#BD6A3A"/>
</svg>
